<svg width="113" height="18" viewBox="0 0 113 18" fill="none" xmlns="http://www.w3.org/2000/svg">
  <path
    d="M0.56 15C0.386667 15 0.3 14.92 0.3 14.76V1.8C0.3 1.62667 0.386667 1.54 0.56 1.54H3.94C4.98 1.54 5.82 1.68 6.46 1.96C7.11333 2.22667 7.59333 2.66 7.9 3.26C8.20667 3.86 8.36 4.67333 8.36 5.7C8.36 6.42 8.23333 7.09333 7.98 7.72C7.72667 8.34667 7.32667 8.86667 6.78 9.28C6.59333 9.45333 6.45333 9.61333 6.36 9.76C6.28 9.90667 6.31333 10.1 6.46 10.34C6.56667 10.58 6.68667 10.82 6.82 11.06C6.95333 11.2867 7.1 11.4933 7.26 11.68C7.42 11.8667 7.6 12.0267 7.8 12.16C8.01333 12.3067 8.25333 12.42 8.52 12.5C8.78667 12.58 9.1 12.62 9.46 12.62C9.58 12.62 9.65333 12.6333 9.68 12.66C9.72 12.6867 9.74 12.7733 9.74 12.92V14.76C9.74 14.84 9.72667 14.8933 9.7 14.92C9.67333 14.9467 9.59333 14.9667 9.46 14.98C9.32667 14.9933 9.1 15 8.78 15C8.23333 15 7.72667 14.92 7.26 14.76C6.80667 14.6 6.39333 14.38 6.02 14.1C5.68667 13.8467 5.37333 13.5467 5.08 13.2C4.8 12.84 4.55333 12.4533 4.34 12.04C4.12667 11.6267 3.94 11.1933 3.78 10.74C3.76667 10.7133 3.74 10.64 3.7 10.52C3.66 10.4 3.6 10.34 3.52 10.34H3.06C2.98 10.34 2.94 10.44 2.94 10.64V14.76C2.94 14.92 2.84667 15 2.66 15H0.56ZM2.94 8.08C2.94 8.13333 2.95333 8.17333 2.98 8.2C3.00667 8.22667 3.04667 8.24 3.1 8.24H3.9C4.48667 8.24 4.94667 8.02 5.28 7.58C5.61333 7.12667 5.78 6.50667 5.78 5.72C5.78 5.06667 5.7 4.57333 5.54 4.24C5.39333 3.90667 5.17333 3.68 4.88 3.56C4.6 3.44 4.25333 3.38 3.84 3.38H3.1C3.03333 3.38 2.98667 3.38667 2.96 3.4C2.94667 3.41333 2.94 3.46667 2.94 3.56V8.08ZM15.0552 15.16C13.8952 15.16 12.9952 14.9467 12.3552 14.52C11.7285 14.08 11.2885 13.4933 11.0352 12.76C10.7952 12.0133 10.6752 11.1667 10.6752 10.22C10.6752 9.3 10.8152 8.48 11.0952 7.76C11.3752 7.02667 11.8285 6.45333 12.4552 6.04C13.0952 5.61333 13.9618 5.4 15.0552 5.4C16.1618 5.4 17.0285 5.61333 17.6552 6.04C18.2952 6.45333 18.7485 7.02667 19.0152 7.76C19.2952 8.48 19.4352 9.3 19.4352 10.22C19.4352 11.1533 19.3152 11.9933 19.0752 12.74C18.8352 13.4733 18.3952 14.06 17.7552 14.5C17.1285 14.94 16.2285 15.16 15.0552 15.16ZM15.0352 13.2C15.6885 13.2 16.1485 12.9467 16.4152 12.44C16.6818 11.9333 16.8152 11.22 16.8152 10.3C16.8152 9.38 16.6685 8.68667 16.3752 8.22C16.0952 7.74 15.6485 7.5 15.0352 7.5C14.4352 7.5 13.9885 7.74 13.6952 8.22C13.4152 8.68667 13.2752 9.38 13.2752 10.3C13.2752 11.2333 13.4018 11.9533 13.6552 12.46C13.9218 12.9533 14.3818 13.2 15.0352 13.2ZM21.3138 15C21.1271 15 21.0338 14.9133 21.0338 14.74C21.0338 13.3533 21.0338 11.9733 21.0338 10.6C21.0338 9.21333 21.0338 7.82667 21.0338 6.44C21.0338 6.30667 21.0804 6.20667 21.1738 6.14C21.2671 6.07333 21.4471 5.99333 21.7138 5.9C21.8871 5.84667 22.1404 5.78667 22.4738 5.72C22.8204 5.64 23.1938 5.56667 23.5938 5.5C23.9938 5.43333 24.3538 5.4 24.6738 5.4C25.7804 5.4 26.6271 5.61333 27.2138 6.04C27.8138 6.45333 28.2204 7.00667 28.4338 7.7C28.6604 8.38 28.7738 9.13333 28.7738 9.96C28.7738 10.4533 28.7604 10.9733 28.7338 11.52C28.7204 12.0533 28.6938 12.58 28.6538 13.1C28.6138 13.62 28.5738 14.0933 28.5338 14.52C28.5071 14.76 28.4671 14.9 28.4138 14.94C28.3604 14.98 28.2404 15 28.0538 15H26.4138C26.2271 15 26.1004 14.98 26.0338 14.94C25.9804 14.8867 25.9604 14.78 25.9737 14.62C25.9737 14.5667 25.9804 14.36 25.9938 14C26.0204 13.6267 26.0471 13.1867 26.0738 12.68C26.1004 12.1733 26.1204 11.6733 26.1338 11.18C26.1604 10.6867 26.1738 10.2867 26.1738 9.98C26.1738 9.28667 26.1138 8.76 25.9938 8.4C25.8738 8.02667 25.7004 7.77333 25.4738 7.64C25.2471 7.50667 24.9604 7.44 24.6138 7.44C24.4804 7.44 24.3538 7.44667 24.2338 7.46C24.1138 7.47333 24.0071 7.49333 23.9138 7.52C23.7938 7.53333 23.7071 7.58667 23.6538 7.68C23.6004 7.77333 23.5738 7.92667 23.5738 8.14C23.5738 8.7 23.5738 9.34667 23.5738 10.08C23.5738 10.8133 23.5738 11.5733 23.5738 12.36C23.5738 13.1467 23.5738 13.94 23.5738 14.74C23.5738 14.9133 23.5004 15 23.3538 15H21.3138ZM34.0688 15.14C33.3888 15.14 32.7488 15.0667 32.1488 14.92C31.5621 14.76 31.0821 14.46 30.7088 14.02C30.3488 13.58 30.1688 12.94 30.1688 12.1C30.1688 11.4067 30.2954 10.84 30.5488 10.4C30.8154 9.94667 31.1488 9.6 31.5488 9.36C31.9621 9.12 32.3888 8.96 32.8288 8.88C33.2688 8.78667 33.6621 8.74 34.0088 8.74C34.2888 8.74 34.5554 8.75333 34.8088 8.78C35.0754 8.79333 35.3221 8.82 35.5488 8.86C35.6688 8.9 35.7288 8.81333 35.7288 8.6C35.7288 8.10667 35.5754 7.76 35.2688 7.56C34.9754 7.36 34.5621 7.26 34.0288 7.26C33.5221 7.26 33.0354 7.35333 32.5688 7.54C32.1154 7.72667 31.7288 7.9 31.4088 8.06C31.2621 8.14 31.1621 8.16667 31.1088 8.14C31.0688 8.11333 31.0354 8.02667 31.0088 7.88L30.8288 6.76C30.8021 6.58667 30.8021 6.47333 30.8288 6.42C30.8554 6.36667 30.9288 6.3 31.0488 6.22C31.3954 5.99333 31.8354 5.81333 32.3688 5.68C32.9021 5.53333 33.4688 5.46 34.0688 5.46C34.9754 5.46 35.7021 5.56667 36.2488 5.78C36.7954 5.98 37.2021 6.25333 37.4688 6.6C37.7488 6.94667 37.9288 7.34667 38.0088 7.8C38.1021 8.24 38.1488 8.7 38.1488 9.18C38.1621 9.74 38.1621 10.2933 38.1488 10.84C38.1488 11.3733 38.1354 11.9067 38.1088 12.44C38.0821 12.9733 38.0421 13.5133 37.9888 14.06C37.9621 14.2067 37.9221 14.32 37.8688 14.4C37.8154 14.4667 37.7088 14.54 37.5488 14.62C37.3621 14.7133 37.1154 14.7933 36.8088 14.86C36.5021 14.9133 36.1688 14.96 35.8088 15C35.4621 15.0533 35.1354 15.0867 34.8288 15.1C34.5221 15.1267 34.2688 15.14 34.0688 15.14ZM34.2288 13.6C34.3354 13.6 34.4554 13.5933 34.5888 13.58C34.7221 13.5533 34.8554 13.52 34.9888 13.48C35.1221 13.44 35.2288 13.3867 35.3088 13.32C35.4021 13.2533 35.4554 13.1667 35.4688 13.06C35.5088 12.74 35.5421 12.3867 35.5688 12C35.5954 11.6133 35.5954 11.24 35.5688 10.88C35.5688 10.7067 35.5021 10.5867 35.3688 10.52C35.2354 10.4267 35.0421 10.3733 34.7888 10.36C34.5488 10.3333 34.3488 10.32 34.1888 10.32C34.0688 10.32 33.9154 10.3467 33.7288 10.4C33.5554 10.44 33.3888 10.52 33.2288 10.64C33.0688 10.76 32.9354 10.94 32.8288 11.18C32.7354 11.42 32.6888 11.7267 32.6888 12.1C32.6888 12.3933 32.7488 12.6533 32.8688 12.88C32.9888 13.1067 33.1621 13.2867 33.3888 13.42C33.6154 13.54 33.8954 13.6 34.2288 13.6ZM39.8033 14.76V1.08C39.8033 0.92 39.8899 0.84 40.0633 0.84H42.0833C42.2699 0.84 42.3633 0.92 42.3633 1.08V14.76C42.3633 14.92 42.2699 15 42.0833 15H40.0633C39.8899 15 39.8033 14.92 39.8033 14.76ZM44.0173 10.42C44.044 9.40667 44.1773 8.58 44.4173 7.94C44.6707 7.3 44.9907 6.8 45.3773 6.44C45.7773 6.08 46.2173 5.83333 46.6973 5.7C47.1773 5.56667 47.664 5.5 48.1573 5.5C48.344 5.5 48.5573 5.52 48.7973 5.56C49.0373 5.6 49.224 5.63333 49.3573 5.66C49.4507 5.68667 49.524 5.69333 49.5773 5.68C49.644 5.66667 49.6773 5.60667 49.6773 5.5C49.6773 5.26 49.6707 5.00667 49.6573 4.74C49.6573 4.47333 49.644 4.20667 49.6173 3.94C49.604 3.66 49.584 3.38667 49.5573 3.12C49.5307 2.84 49.504 2.58 49.4773 2.34C49.464 2.08667 49.444 1.86 49.4173 1.66C49.3907 1.43333 49.3973 1.3 49.4373 1.26C49.4907 1.22 49.5773 1.2 49.6973 1.2H51.6173C51.7107 1.2 51.784 1.20667 51.8373 1.22C51.904 1.23333 51.944 1.28667 51.9573 1.38C52.0107 1.92667 52.0573 2.56667 52.0973 3.3C52.1373 4.02 52.1707 4.8 52.1973 5.64C52.224 6.46667 52.2373 7.3 52.2373 8.14C52.2507 8.98 52.244 9.78667 52.2173 10.56C52.204 11.3333 52.1707 12.02 52.1173 12.62C52.0773 13.22 52.0173 13.68 51.9373 14C51.8973 14.16 51.8373 14.28 51.7573 14.36C51.6907 14.44 51.5107 14.5333 51.2173 14.64C50.964 14.7467 50.5573 14.86 49.9973 14.98C49.4373 15.0867 48.824 15.14 48.1573 15.14C47.6373 15.1267 47.1507 15.0667 46.6973 14.96C46.2573 14.84 45.8707 14.6533 45.5373 14.4C45.0307 14.04 44.6507 13.5333 44.3973 12.88C44.144 12.2133 44.0173 11.3933 44.0173 10.42ZM46.6373 10.44C46.624 11.36 46.7307 12.0133 46.9573 12.4C47.1973 12.7733 47.4973 12.9867 47.8573 13.04C48.0173 13.0933 48.184 13.1267 48.3573 13.14C48.544 13.14 48.724 13.1267 48.8973 13.1C49.084 13.06 49.244 13.0133 49.3773 12.96C49.4173 12.9333 49.444 12.9067 49.4573 12.88C49.484 12.84 49.4973 12.7867 49.4973 12.72C49.5107 12.4267 49.524 12.12 49.5373 11.8C49.564 11.48 49.5773 11.16 49.5773 10.84C49.5907 10.52 49.604 10.2 49.6173 9.88C49.6307 9.56 49.6373 9.25333 49.6373 8.96C49.6507 8.66667 49.6507 8.39333 49.6373 8.14C49.6373 8.04667 49.624 7.98667 49.5973 7.96C49.584 7.92 49.5507 7.89333 49.4973 7.88C49.324 7.81333 49.1173 7.76 48.8773 7.72C48.6507 7.66667 48.4573 7.64 48.2973 7.64C48.1373 7.64 47.9573 7.67333 47.7573 7.74C47.5707 7.80667 47.3907 7.93333 47.2173 8.12C47.0573 8.30667 46.924 8.58667 46.8173 8.96C46.7107 9.32 46.6507 9.81333 46.6373 10.44ZM58.0825 15.16C56.9225 15.16 56.0225 14.9467 55.3825 14.52C54.7558 14.08 54.3158 13.4933 54.0625 12.76C53.8225 12.0133 53.7025 11.1667 53.7025 10.22C53.7025 9.3 53.8425 8.48 54.1225 7.76C54.4025 7.02667 54.8558 6.45333 55.4825 6.04C56.1225 5.61333 56.9892 5.4 58.0825 5.4C59.1892 5.4 60.0558 5.61333 60.6825 6.04C61.3225 6.45333 61.7758 7.02667 62.0425 7.76C62.3225 8.48 62.4625 9.3 62.4625 10.22C62.4625 11.1533 62.3425 11.9933 62.1025 12.74C61.8625 13.4733 61.4225 14.06 60.7825 14.5C60.1558 14.94 59.2558 15.16 58.0825 15.16ZM58.0625 13.2C58.7158 13.2 59.1758 12.9467 59.4425 12.44C59.7092 11.9333 59.8425 11.22 59.8425 10.3C59.8425 9.38 59.6958 8.68667 59.4025 8.22C59.1225 7.74 58.6758 7.5 58.0625 7.5C57.4625 7.5 57.0158 7.74 56.7225 8.22C56.4425 8.68667 56.3025 9.38 56.3025 10.3C56.3025 11.2333 56.4292 11.9533 56.6825 12.46C56.9492 12.9533 57.4092 13.2 58.0625 13.2ZM76.4514 14.3C76.4514 14.62 76.2647 14.8267 75.8914 14.92C75.7047 14.9867 75.4714 15.0333 75.1914 15.06C74.9247 15.1 74.6647 15.1267 74.4114 15.14C74.1714 15.1533 73.9847 15.16 73.8514 15.16C72.2381 15.16 70.9447 14.58 69.9714 13.42C68.9981 12.26 68.5114 10.5533 68.5114 8.3C68.5114 6.03333 68.9781 4.32 69.9114 3.16C70.8581 1.98667 72.1714 1.4 73.8514 1.4C73.9847 1.4 74.1714 1.41333 74.4114 1.44C74.6647 1.45333 74.9247 1.48 75.1914 1.52C75.4714 1.54667 75.7047 1.59333 75.8914 1.66C76.0781 1.7 76.2181 1.75333 76.3114 1.82C76.4047 1.88667 76.4514 1.98 76.4514 2.1V3.84C76.4514 4.2 76.2581 4.24667 75.8714 3.98C75.6047 3.80667 75.3114 3.68 74.9914 3.6C74.6714 3.50667 74.3581 3.46 74.0514 3.46C73.5047 3.46 73.0447 3.58 72.6714 3.82C72.3114 4.04667 72.0247 4.37333 71.8114 4.8C71.5981 5.21333 71.4447 5.69333 71.3514 6.24C71.2581 6.78667 71.2114 7.38667 71.2114 8.04C71.2114 8.48 71.2314 8.93333 71.2714 9.4C71.3247 9.86667 71.4047 10.3267 71.5114 10.78C71.6314 11.22 71.7914 11.62 71.9914 11.98C72.2047 12.34 72.4781 12.6267 72.8114 12.84C73.1581 13.04 73.5714 13.14 74.0514 13.14C74.3981 13.14 74.7314 13.1 75.0514 13.02C75.3714 12.9267 75.6247 12.8267 75.8114 12.72C76.0647 12.56 76.2314 12.4867 76.3114 12.5C76.4047 12.5133 76.4514 12.62 76.4514 12.82V14.3ZM79.5659 12.88C79.3126 12.3733 79.0726 11.84 78.8459 11.28C78.6326 10.7067 78.4326 10.12 78.2459 9.52C78.0593 8.92 77.8993 8.32 77.7659 7.72C77.6326 7.10667 77.5126 6.52 77.4059 5.96C77.3659 5.69333 77.4459 5.56 77.6459 5.56H79.6459C79.7926 5.56 79.8926 5.6 79.9459 5.68C80.0126 5.74667 80.0593 5.88 80.0859 6.08C80.1126 6.28 80.1526 6.54 80.2059 6.86C80.2593 7.16667 80.3259 7.50667 80.4059 7.88C80.4859 8.24 80.5726 8.62 80.6659 9.02C80.7593 9.40667 80.8593 9.78 80.9659 10.14C81.0859 10.5 81.1926 10.8267 81.2859 11.12C81.3393 11.2133 81.3926 11.26 81.4459 11.26C81.4993 11.26 81.5326 11.2133 81.5459 11.12C81.6659 10.7467 81.7859 10.3467 81.9059 9.92C82.0259 9.49333 82.1459 9.05333 82.2659 8.6C82.3859 8.14667 82.4926 7.69333 82.5859 7.24C82.6793 6.78667 82.7659 6.34667 82.8459 5.92C82.8726 5.78667 82.9059 5.69333 82.9459 5.64C82.9993 5.58667 83.0993 5.56 83.2459 5.56H84.9659C85.0859 5.56 85.1793 5.58667 85.2459 5.64C85.3259 5.68 85.3459 5.79333 85.3059 5.98C85.2259 6.51333 85.1259 7.02667 85.0059 7.52C84.8859 8 84.7526 8.49333 84.6059 9C84.4593 9.49333 84.2793 10.0533 84.0659 10.68C83.9193 11.0667 83.7459 11.5467 83.5459 12.12C83.3459 12.68 83.0926 13.2667 82.7859 13.88C82.4793 14.4933 82.1126 15.06 81.6859 15.58C81.2726 16.1 80.7793 16.5267 80.2059 16.86C79.6459 17.1933 79.0059 17.36 78.2859 17.36C77.9259 17.36 77.6193 17.3333 77.3659 17.28C77.1259 17.24 76.9193 17.18 76.7459 17.1C76.4659 16.9667 76.3926 16.7733 76.5259 16.52L77.0059 15.58C77.0726 15.46 77.1326 15.4 77.1859 15.4C77.2393 15.4 77.3126 15.4133 77.4059 15.44C77.6326 15.4933 77.8726 15.4933 78.1259 15.44C78.3926 15.4 78.6326 15.32 78.8459 15.2C79.0859 15.0667 79.2726 14.9267 79.4059 14.78C79.5526 14.6333 79.6593 14.48 79.7259 14.32C79.8326 14.0933 79.8593 13.8533 79.8059 13.6C79.7659 13.3467 79.6859 13.1067 79.5659 12.88ZM86.402 12.68C86.442 12.5333 86.502 12.4733 86.582 12.5C86.6754 12.5133 86.762 12.5467 86.842 12.6C87.0687 12.7067 87.3287 12.8067 87.622 12.9C87.9287 12.98 88.242 13.0467 88.562 13.1C88.882 13.14 89.1687 13.16 89.422 13.16C89.6887 13.16 89.9287 13.1333 90.142 13.08C90.3687 13.0133 90.5487 12.9133 90.682 12.78C90.8154 12.6467 90.882 12.4733 90.882 12.26C90.8954 11.9667 90.762 11.7467 90.482 11.6C90.2154 11.44 89.742 11.2867 89.062 11.14C88.6354 11.0467 88.1954 10.9133 87.742 10.74C87.302 10.5533 86.9354 10.28 86.642 9.92C86.3487 9.54667 86.202 9.06 86.202 8.46C86.202 7.78 86.3754 7.22667 86.722 6.8C87.0687 6.36 87.5154 6.02667 88.062 5.8C88.622 5.57333 89.2154 5.46 89.842 5.46C90.3354 5.46 90.8754 5.53333 91.462 5.68C92.0487 5.82667 92.5354 6.01333 92.922 6.24C93.042 6.30667 93.102 6.36667 93.102 6.42C93.1154 6.47333 93.1087 6.54667 93.082 6.64L92.602 7.94C92.562 8.1 92.4354 8.14 92.222 8.06C91.9287 7.88667 91.5687 7.72667 91.142 7.58C90.7154 7.43333 90.282 7.36 89.842 7.36C89.5354 7.36 89.262 7.44 89.022 7.6C88.7954 7.74667 88.682 7.94 88.682 8.18C88.682 8.47333 88.8154 8.68667 89.082 8.82C89.3487 8.95333 89.7354 9.07333 90.242 9.18C90.6154 9.26 90.9754 9.35333 91.322 9.46C91.6687 9.55333 91.9887 9.7 92.282 9.9C92.5754 10.0867 92.8087 10.3467 92.982 10.68C93.1554 11 93.242 11.42 93.242 11.94C93.242 12.54 93.1287 13.0467 92.902 13.46C92.6754 13.86 92.3687 14.18 91.982 14.42C91.6087 14.66 91.1954 14.8333 90.742 14.94C90.302 15.0467 89.862 15.1 89.422 15.1C89.182 15.1 88.8687 15.0733 88.482 15.02C88.0954 14.9667 87.702 14.88 87.302 14.76C86.902 14.64 86.562 14.48 86.282 14.28C86.2287 14.2533 86.182 14.22 86.142 14.18C86.1154 14.1267 86.1087 14.06 86.122 13.98L86.402 12.68ZM95.0052 15C94.8185 15 94.7252 14.9133 94.7252 14.74C94.7252 13.3533 94.7252 11.9733 94.7252 10.6C94.7252 9.21333 94.7252 7.82667 94.7252 6.44C94.7252 6.30667 94.7718 6.20667 94.8652 6.14C94.9585 6.07333 95.1385 5.99333 95.4052 5.9C95.5785 5.84667 95.8318 5.78667 96.1652 5.72C96.5118 5.64 96.8852 5.56667 97.2852 5.5C97.6852 5.43333 98.0452 5.4 98.3652 5.4C99.4718 5.4 100.318 5.61333 100.905 6.04C101.505 6.45333 101.912 7.00667 102.125 7.7C102.352 8.38 102.465 9.13333 102.465 9.96C102.465 10.4533 102.452 10.9733 102.425 11.52C102.412 12.0533 102.385 12.58 102.345 13.1C102.305 13.62 102.265 14.0933 102.225 14.52C102.198 14.76 102.158 14.9 102.105 14.94C102.052 14.98 101.932 15 101.745 15H100.105C99.9185 15 99.7918 14.98 99.7252 14.94C99.6718 14.8867 99.6518 14.78 99.6652 14.62C99.6652 14.5667 99.6718 14.36 99.6852 14C99.7118 13.6267 99.7385 13.1867 99.7652 12.68C99.7918 12.1733 99.8118 11.6733 99.8252 11.18C99.8518 10.6867 99.8652 10.2867 99.8652 9.98C99.8652 9.28667 99.8052 8.76 99.6852 8.4C99.5652 8.02667 99.3918 7.77333 99.1652 7.64C98.9385 7.50667 98.6518 7.44 98.3052 7.44C98.1718 7.44 98.0452 7.44667 97.9252 7.46C97.8052 7.47333 97.6985 7.49333 97.6052 7.52C97.4852 7.53333 97.3985 7.58667 97.3452 7.68C97.2918 7.77333 97.2652 7.92667 97.2652 8.14C97.2652 8.7 97.2652 9.34667 97.2652 10.08C97.2652 10.8133 97.2652 11.5733 97.2652 12.36C97.2652 13.1467 97.2652 13.94 97.2652 14.74C97.2652 14.9133 97.1918 15 97.0452 15H95.0052ZM103.8 10.26C103.8 9.63333 103.867 9.03333 104 8.46C104.133 7.88667 104.353 7.36667 104.66 6.9C104.98 6.43333 105.413 6.06667 105.96 5.8C106.52 5.53333 107.22 5.4 108.06 5.4C108.94 5.4 109.64 5.52667 110.16 5.78C110.68 6.02 111.073 6.34667 111.34 6.76C111.607 7.17333 111.78 7.62667 111.86 8.12C111.953 8.6 112 9.08 112 9.56C112 10.12 111.933 10.4933 111.8 10.68C111.68 10.8533 111.487 10.94 111.22 10.94H106.58C106.5 10.94 106.447 10.96 106.42 11C106.407 11.0267 106.4 11.0867 106.4 11.18C106.4 11.58 106.487 11.9467 106.66 12.28C106.847 12.6 107.113 12.8533 107.46 13.04C107.807 13.2267 108.213 13.32 108.68 13.32C109.12 13.32 109.54 13.2533 109.94 13.12C110.34 12.9733 110.633 12.8467 110.82 12.74C110.98 12.6467 111.107 12.5933 111.2 12.58C111.293 12.5533 111.393 12.6467 111.5 12.86L111.92 13.7C112 13.8467 112.02 13.9533 111.98 14.02C111.94 14.0733 111.853 14.1467 111.72 14.24C111.253 14.56 110.693 14.7933 110.04 14.94C109.387 15.0867 108.733 15.16 108.08 15.16C107.213 15.16 106.5 15.0333 105.94 14.78C105.38 14.5267 104.947 14.1733 104.64 13.72C104.333 13.2667 104.113 12.7467 103.98 12.16C103.86 11.56 103.8 10.9267 103.8 10.26ZM109.42 9.14C109.42 8.76667 109.373 8.44667 109.28 8.18C109.187 7.91333 109.033 7.70667 108.82 7.56C108.62 7.41333 108.347 7.34 108 7.34C107.72 7.34 107.48 7.39333 107.28 7.5C107.093 7.60667 106.94 7.74667 106.82 7.92C106.7 8.09333 106.607 8.28667 106.54 8.5C106.473 8.7 106.427 8.89333 106.4 9.08C106.387 9.29333 106.387 9.42667 106.4 9.48C106.413 9.52 106.467 9.54 106.56 9.54H109.18C109.3 9.54 109.373 9.52 109.4 9.48C109.427 9.44 109.433 9.32667 109.42 9.14Z"
    fill="black" />
</svg>